<?xml version="1.0" encoding="UTF-8"?>
<svg version="1.1" xmlns="http://www.w3.org/2000/svg" width="256" height="256">
<path d="M0 0 C84.48 0 168.96 0 256 0 C256 84.48 256 168.96 256 256 C171.52 256 87.04 256 0 256 C0 171.52 0 87.04 0 0 Z " fill="#B900FD" transform="translate(0,0)"/>
<path d="M0 0 C8.89489845 7.29733678 15.67918914 17.56877011 17.44140625 29.10546875 C17.70407706 32.7776207 17.72148958 36.42527482 17.69140625 40.10546875 C17.70300781 41.52472656 17.70300781 41.52472656 17.71484375 42.97265625 C17.68033626 55.4298617 13.92836545 66.76191264 5.25390625 75.98046875 C-8.25114633 88.38444384 -22.71493575 89.10546875 -40.55859375 89.10546875 C-40.55859375 75.90546875 -40.55859375 62.70546875 -40.55859375 49.10546875 C-39.89859375 49.10546875 -39.23859375 49.10546875 -38.55859375 49.10546875 C-38.55859375 42.83546875 -38.55859375 36.56546875 -38.55859375 30.10546875 C-44.77995034 32.87080059 -44.77995034 32.87080059 -47.55859375 38.10546875 C-47.98767137 41.41847341 -47.99608475 44.69903898 -47.9909668 48.03637695 C-48.00115845 49.03197128 -48.0113501 50.02756561 -48.02185059 51.05332947 C-48.05199759 54.33769343 -48.06124933 57.62176581 -48.0703125 60.90625 C-48.08715788 63.18597891 -48.10530793 65.46569852 -48.12471008 67.7454071 C-48.17223127 73.74094742 -48.20202711 79.73645005 -48.22814941 85.7321167 C-48.25794409 91.85208582 -48.30447823 97.97192504 -48.34960938 104.09179688 C-48.43566683 116.09630121 -48.50145418 128.1007919 -48.55859375 140.10546875 C-63.07859375 140.10546875 -77.59859375 140.10546875 -92.55859375 140.10546875 C-92.62655871 126.63969416 -92.68151885 113.17403481 -92.71403027 99.70812702 C-92.72963956 93.45435998 -92.75079098 87.20071709 -92.78491211 80.94702148 C-92.81767483 74.90399657 -92.83548233 68.86109056 -92.84322548 62.81798363 C-92.84873873 60.52048053 -92.85950423 58.22298342 -92.87578392 55.92553139 C-93.0147351 35.49057736 -91.80933679 18.98010313 -77.03515625 3.390625 C-55.26960681 -16.69272898 -23.31005891 -17.26011995 0 0 Z " fill="#FEFDFE" transform="translate(216.55859375,59.89453125)"/>
<path d="M0 0 C1.05267563 0.0028299 2.10535126 0.00565979 3.18992615 0.00857544 C6.52126891 0.01968688 9.85233352 0.04477452 13.18359375 0.0703125 C15.45507422 0.08035398 17.72655894 0.08947778 19.99804688 0.09765625 C25.53925345 0.11788702 31.07986567 0.15705316 36.62109375 0.1953125 C36.62109375 14.3853125 36.62109375 28.5753125 36.62109375 43.1953125 C19.87109375 43.5703125 19.87109375 43.5703125 14.60253906 43.67333984 C13.21807966 43.70855938 11.8336379 43.74448214 10.44921875 43.78125 C9.37873291 43.79828979 9.37873291 43.79828979 8.28662109 43.81567383 C3.12258067 43.93910479 3.12258067 43.93910479 -1.37890625 46.1953125 C-2.55054295 49.56291437 -2.55054295 49.56291437 -2.37890625 53.1953125 C-0.90698007 55.53635744 -0.90698007 55.53635744 1.62109375 57.1953125 C5.09834269 57.83805204 5.09834269 57.83805204 9.01171875 57.8046875 C10.30110352 57.83530273 11.59048828 57.86591797 12.91894531 57.89746094 C15.37025879 57.92114746 15.37025879 57.92114746 17.87109375 57.9453125 C23.06859375 58.0278125 28.26609375 58.1103125 33.62109375 58.1953125 C33.62109375 69.0853125 33.62109375 79.9753125 33.62109375 91.1953125 C17.43359375 91.5703125 17.43359375 91.5703125 12.35083008 91.67333984 C11.00990877 91.70857112 9.66900541 91.74449516 8.328125 91.78125 C7.64117554 91.79260986 6.95422607 91.80396973 6.24645996 91.81567383 C2.31024999 91.93363932 -0.87432251 92.34412911 -4.37890625 94.1953125 C-5.79932446 97.03614891 -5.69342897 99.05008528 -5.37890625 102.1953125 C-3.96106057 104.52565587 -3.96106057 104.52565587 -1.37890625 106.1953125 C1.63527635 106.61268383 4.3075617 106.80043441 7.32421875 106.8046875 C8.43869385 106.82813232 8.43869385 106.82813232 9.57568359 106.85205078 C12.34049773 106.90449372 15.10587319 106.92289056 17.87109375 106.9453125 C24.05859375 107.0278125 30.24609375 107.1103125 36.62109375 107.1953125 C36.62109375 121.0553125 36.62109375 134.9153125 36.62109375 149.1953125 C29.94977602 149.24137453 23.27901641 149.28115565 16.60766602 149.30517578 C14.34104537 149.31519578 12.07443752 149.32881547 9.80786133 149.34619141 C6.53854195 149.37061612 3.26939439 149.38183593 0 149.390625 C-1.50523476 149.40610886 -1.50523476 149.40610886 -3.0408783 149.42190552 C-11.60451854 149.42325262 -18.95727508 148.27920238 -26.62890625 144.3203125 C-27.6034375 143.82789063 -28.57796875 143.33546875 -29.58203125 142.828125 C-39.72414713 136.90716908 -45.40970589 127.38568589 -48.37890625 116.1953125 C-49.16242747 111.46203348 -49.5166879 106.90023317 -49.5559082 102.10522461 C-49.5624794 101.43418701 -49.5690506 100.76314941 -49.57582092 100.07177734 C-49.59537347 97.87206875 -49.60717844 95.67242796 -49.6171875 93.47265625 C-49.62126303 92.71323793 -49.62533855 91.95381962 -49.62953758 91.17138863 C-49.65032593 87.14819749 -49.6646563 83.12503969 -49.67407227 79.10180664 C-49.68509629 74.98569759 -49.7194702 70.87013508 -49.75924397 66.7542181 C-49.78562521 63.55478542 -49.79378314 60.35547856 -49.79735374 57.15594673 C-49.80216771 55.64075612 -49.81362955 54.12556908 -49.83239174 52.61048698 C-50.00361335 37.86279389 -47.78063604 23.612636 -37.6015625 12.203125 C-27.12994279 2.22403546 -13.9251611 -0.14324356 0 0 Z " fill="#FDFCFD" transform="translate(65.37890625,50.8046875)"/>
<path d="M0 0 C11.69091552 9.06601221 20.37315732 21.85525494 22.26171875 36.75390625 C23.27316223 53.32065298 20.4171679 68.47627364 9.51171875 81.62890625 C5.43965678 85.93680193 0.73278213 89.41497581 -4.73828125 91.75390625 C-5.39828125 91.42390625 -6.05828125 91.09390625 -6.73828125 90.75390625 C-6.21878906 90.23183594 -5.69929688 89.70976562 -5.1640625 89.171875 C4.9061324 78.54325894 7.43458754 68.27318042 7.51171875 54.00390625 C7.53234375 53.06546875 7.55296875 52.12703125 7.57421875 51.16015625 C7.64342253 38.6342725 3.32520286 27.72691298 -4.92578125 18.23828125 C-16.97359868 6.58677361 -31.32082524 2.33386458 -47.72802734 2.38818359 C-62.72004497 2.67362113 -74.94188021 8.84106991 -86.73828125 17.75390625 C-85.30542964 13.10566739 -82.6410238 10.15178352 -79.23828125 6.81640625 C-78.70146729 6.28789063 -78.16465332 5.759375 -77.61157227 5.21484375 C-70.04055897 -2.04150385 -61.72108271 -6.17446253 -51.73828125 -9.24609375 C-51.01125 -9.47296875 -50.28421875 -9.69984375 -49.53515625 -9.93359375 C-32.47647646 -14.48257503 -14.23557087 -9.91272736 0 0 Z " fill="#070409" transform="translate(225.73828125,46.24609375)"/>
<path d="M0 0 C1.80782707 0.00848969 1.80782707 0.00848969 3.6521759 0.01715088 C7.46254955 0.03935645 11.27194679 0.08952499 15.08203125 0.140625 C17.68162695 0.16071036 20.28123753 0.17895753 22.88085938 0.1953125 C29.21941934 0.23574988 35.55589579 0.31407657 41.89453125 0.390625 C41.89453125 15.240625 41.89453125 30.090625 41.89453125 45.390625 C40.24453125 45.390625 38.59453125 45.390625 36.89453125 45.390625 C36.89453125 34.170625 36.89453125 22.950625 36.89453125 11.390625 C30.27770948 11.46500013 23.66214713 11.5481704 17.04589844 11.65307617 C14.79987337 11.68612492 12.55376924 11.71421777 10.30761719 11.73706055 C7.06020732 11.77097794 3.81350904 11.82330945 0.56640625 11.87890625 C-0.91560272 11.88849113 -0.91560272 11.88849113 -2.42755127 11.89826965 C-13.21275146 12.120628 -23.07652367 14.3480428 -32.10546875 20.390625 C-32.72035156 20.77476563 -33.33523437 21.15890625 -33.96875 21.5546875 C-40.30382067 26.13391818 -42.98499473 33.46677686 -46.10546875 40.390625 C-46.43546875 40.390625 -46.76546875 40.390625 -47.10546875 40.390625 C-47.93185035 31.79625636 -45.13445547 24.56207286 -40.0859375 17.609375 C-29.12035234 4.85780136 -16.68317869 -0.30047237 0 0 Z " fill="#030104" transform="translate(65.10546875,39.609375)"/>
<path d="M0 0 C0 6.27 0 12.54 0 19 C-0.66 19 -1.32 19 -2 19 C-2 32.2 -2 45.4 -2 59 C-1.34 59 -0.68 59 0 59 C0 74.84 0 90.68 0 107 C-2.97 107 -5.94 107 -9 107 C-9.0926489 93.91764994 -9.1637393 80.83537783 -9.20724869 67.75276661 C-9.22813022 61.6780775 -9.25645878 55.60361273 -9.30175781 49.52905273 C-9.3451945 43.66760234 -9.36913284 37.80636782 -9.37950897 31.94476891 C-9.38690419 29.70762419 -9.40134515 27.47049139 -9.42292023 25.23343849 C-9.45192457 22.10173563 -9.45595715 18.97092672 -9.45410156 15.83911133 C-9.46848267 14.91266312 -9.48286377 13.9862149 -9.49768066 13.0316925 C-9.47063919 8.8185721 -9.37126063 6.59538907 -7.09661865 2.94755554 C-4.43352231 0.47379713 -3.66712255 0 0 0 Z " fill="#070408" transform="translate(178,90)"/>
<path d="M0 0 C0.66 0 1.32 0 2 0 C2.28875 0.969375 2.5775 1.93875 2.875 2.9375 C3.64214682 6.10664203 3.64214682 6.10664203 6 7 C8.98743502 7.15732203 11.9555862 7.25868898 14.9453125 7.31640625 C15.72962646 7.33505737 16.51394043 7.3537085 17.32202148 7.3729248 C20.25623136 7.44130382 23.19062952 7.50140059 26.125 7.5625 C35.963125 7.7790625 35.963125 7.7790625 46 8 C46 22.85 46 37.7 46 53 C44.35 53 42.7 53 41 53 C41 40.13 41 27.26 41 14 C28.71880418 14.19755338 28.71880418 14.19755338 16.4387207 14.45043945 C14.89275847 14.46505008 13.34677693 14.4777894 11.80078125 14.48828125 C11.0058728 14.51386108 10.21096436 14.53944092 9.39196777 14.5657959 C5.10514743 14.569156 3.48800361 14.37700949 -0.02270508 11.66479492 C-2 9 -2 9 -2.4375 5.875 C-2 3 -2 3 0 0 Z " fill="#0C0A0C" transform="translate(61,144)"/>
<path d="M0 0 C0.8353125 0.433125 0.8353125 0.433125 1.6875 0.875 C6.73826146 3.3321272 10.59079875 4.27384688 16.26953125 4.4140625 C17.51581299 4.44967285 18.76209473 4.4852832 20.04614258 4.52197266 C21.61904053 4.55597168 23.19193848 4.5899707 24.8125 4.625 C29.824375 4.74875 34.83625 4.8725 40 5 C40 16.22 40 27.44 40 39 C38.35 39 36.7 39 35 39 C35 30.42 35 21.84 35 13 C32.74800781 13.05800781 30.49601562 13.11601563 28.17578125 13.17578125 C25.98481769 13.21482028 23.79389346 13.24515386 21.6027832 13.2746582 C20.08470199 13.29974109 18.56674082 13.3338166 17.04907227 13.37719727 C14.86184035 13.43813293 12.67620961 13.46626895 10.48828125 13.48828125 C9.17384033 13.51446533 7.85939941 13.54064941 6.50512695 13.56762695 C2.11545003 12.85675429 0.63720236 11.52273744 -2 8 C-1.79310345 1.79310345 -1.79310345 1.79310345 0 0 Z " fill="#060506" transform="translate(64,96)"/>
<path d="M0 0 C7 1 7 1 9.4375 2.5 C11.79594416 6.27351066 11.87077655 9.67694122 11 14 C8.95181477 17.07227784 7.52456142 18.62520024 3.88671875 19.51953125 C1.93519405 19.77950346 -0.03377552 19.90002248 -2 20 C-1.34 19.67 -0.68 19.34 0 19 C0 12.73 0 6.46 0 0 Z " fill="#AC0BE8" transform="translate(178,90)"/>
<path d="M0 0 C0.66 0.33 1.32 0.66 2 1 C-0.64 3.64 -3.28 6.28 -6 9 C-5.67 9.66 -5.34 10.32 -5 11 C-9.455 13.97 -9.455 13.97 -14 17 C-11.75 11.375 -11.75 11.375 -9.1796875 8.88671875 C-8.64472656 8.36142578 -8.10976562 7.83613281 -7.55859375 7.29492188 C-7.00300781 6.76447266 -6.44742188 6.23402344 -5.875 5.6875 C-5.31167969 5.13771484 -4.74835938 4.58792969 -4.16796875 4.02148438 C-2.78537942 2.67404562 -1.39359084 1.33605727 0 0 Z " fill="#1A0B20" transform="translate(153,47)"/>
<path d="M0 0 C0.66 0.66 1.32 1.32 2 2 C1.67582137 5.80909895 1.14418558 7.78372163 -1 11 C-1.125 3.375 -1.125 3.375 0 0 Z " fill="#290D34" transform="translate(19,69)"/>
</svg>
